# File created by Blade
# Date/Time:  Tue Sep 30 19:15:05 2014
# Frame Rate: 120.000 fps
#------------------------------------------------------
:FULLY-SPECIFIED
:DEGREES
3577
root -1.951996 34.100731 -2.207596 41.651505 -5.163599 -30.924503
Spine -27.244688 15.030386 8.133017
Head -25.794149 -57.341535 41.028715
LeftShoulder 17.538219 6.548993 28.503702
LeftArm -34.755720 -24.721491 -67.889817
LeftForeArm -145.941572 2.784923 -4.111058
LeftHand 0.000047 37.881877 8.372899
LeftHandThumb1 30.357831 13.997178 22.438692
RightShoulder -15.670917 -22.356630 -13.242312
RightArm 61.039078 8.219899 94.340168
RightForeArm 87.127351 -21.744197 1.064981
RightHand -0.000056 -3.385706 22.315421
RightHandThumb1 30.482666 -12.916435 -20.793814
LeftUpLeg -39.142391 10.692252 21.816008
LeftLeg 15.651000 -0.000000 0.000000
LeftFoot -18.451480 19.510325 -6.936124
LeftToeBase 4.793900 0.000000 0.000000
RightUpLeg 10.961977 9.137875 -20.411549
RightLeg 105.776703 -0.000000 -0.000000
RightFoot 30.346686 -24.511741 -5.052573
RightToeBase 18.837799 0.000000 0.000000
3578
root -1.943396 34.095932 -2.213996 41.694139 -5.166346 -30.887781
Spine -27.254417 15.100267 8.089588
Head -26.188006 -57.342179 41.265273
LeftShoulder 17.718896 6.482812 28.518097
LeftArm -34.752942 -24.958009 -67.862483
LeftForeArm -145.975969 2.778910 -4.107514
LeftHand -0.000077 37.873054 8.394201
LeftHandThumb1 30.357831 13.997178 22.438692
RightShoulder -15.696176 -22.308142 -13.320909
RightArm 60.901684 8.236171 94.440975
RightForeArm 87.087386 -21.797853 1.082354
RightHand -0.000025 -3.405231 22.072719
RightHandThumb1 30.482666 -12.916435 -20.793814
LeftUpLeg -39.234473 10.634362 21.793237
LeftLeg 15.712200 0.000000 0.000000
LeftFoot -18.480666 19.561162 -6.934395
LeftToeBase 4.785100 -0.000000 -0.000000
RightUpLeg 10.909802 8.871262 -20.519929
RightLeg 105.708801 -0.000000 -0.000000
RightFoot 30.430156 -24.531030 -4.986116
RightToeBase 18.798000 0.000000 0.000000
3579
root -1.933996 34.090130 -2.223396 41.738431 -5.186317 -30.873228
Spine -27.233445 15.195381 8.074817
Head -26.618974 -57.336274 41.531423
LeftShoulder 17.286621 6.247689 28.575934
LeftArm -34.696137 -24.472987 -68.011454
LeftForeArm -146.103678 2.723051 -4.044631
LeftHand 0.000074 37.874623 8.369091
LeftHandThumb1 30.357831 13.997178 22.438692
RightShoulder -15.748936 -22.289570 -13.280001
RightArm 60.792690 8.364735 94.469299
RightForeArm 87.069141 -21.857574 1.091981
RightHand -0.000005 -3.524363 22.058224
RightHandThumb1 30.482666 -12.916435 -20.793814
LeftUpLeg -39.317515 10.565505 21.795677
LeftLeg 15.777600 -0.000000 0.000000
LeftFoot -18.514520 19.662818 -6.887056
LeftToeBase 4.790500 -0.000000 0.000000
RightUpLeg 10.818006 8.617235 -20.645773
RightLeg 105.666298 -0.000000 -0.000000
RightFoot 30.435401 -24.564811 -4.888974
RightToeBase 18.807301 0.000000 0.000000
3580
root -1.921696 34.086533 -2.229996 41.722860 -5.229351 -30.879168
Spine -27.103796 15.276939 8.063544
Head -27.121406 -57.290722 41.984883
LeftShoulder 18.040370 6.757242 28.508014
LeftArm -34.187628 -25.962997 -67.856936
LeftForeArm -145.863722 2.956450 -4.350394
LeftHand -0.000044 37.962677 8.176729
LeftHandThumb1 30.357831 13.997178 22.438692
RightShoulder -15.768760 -22.243504 -13.143318
RightArm 60.604113 8.530801 94.462136
RightForeArm 87.043467 -21.884791 1.102865
RightHand 0.000045 -3.560316 22.190262
RightHandThumb1 30.482666 -12.916435 -20.793814
LeftUpLeg -39.315034 10.462478 21.829249
LeftLeg 15.828800 0.000000 0.000000
LeftFoot -18.527481 19.803358 -6.834612
LeftToeBase 4.792600 -0.000000 -0.000000
RightUpLeg 10.744957 8.405164 -20.774190
RightLeg 105.603302 -0.000000 0.000000
RightFoot 30.532217 -24.536474 -4.897788
RightToeBase 18.791300 -0.000000 -0.000000
